Love for All and Sharing is the first step to solving all the problems of humanity.

Website I want to share. 
               
   http://www.scenetime.com
 
 
  Credit to EVERYONE for sharing and seeding back
 especially to SCENETIME.COM where i get all my 
 downloads.


 support www.scenetime.com to grow faster.

                             
                                                            
                                                   

.                 ..................................NFO:....................................*******************************************************************************
                  Ghost.Son.2006.DVDRip.AC3.X264-BARC0DE
*******************************************************************************

-------------------------------------------------------------------------------
                              General Information
-------------------------------------------------------------------------------
Type.................: Movie
Name.................: Ghost Son
Movie Information....: http://www.imdb.com/title/tt0460808/
Genre................: Drama | Horror | Mystery | Thriller 
Subs.................: Hardcoded English
-------------------------------------------------------------------------------
                                    PLOT
-------------------------------------------------------------------------------
A widowed newlywed stays on her deceased husband's South African farm, then bears 
a child who seems to be possessed by the dead man.

-------------------------------------------------------------------------------
                                    CAST
-------------------------------------------------------------------------------
Laura Harring	... 	Stacey
John Hannah	... 	Mark
Pete Postlethwaite	... 	Doc
Coralina Cataldi-Tassoni	... 	Beth
Mosa Kaiser	... 	Thandi
Laura Susanne Ruedeberg	... 	Paediatrician
Jake David Matthewson	... 	Martin
Mary Twala	... 	Leleti
Vanessa Cooke	... 	Gynecologist
Jeremiah Ndlovu	... 	Bongani

-------------------------------------------------------------------------------
                                    MEDiA iNFO
-------------------------------------------------------------------------------

General
Complete name                    : Ghost.Son.2006.DVDRip.AC3.X264-BARC0DE.mkv
Format                           : Matroska
File size                        : 1.45 GiB
Duration                         : 1h 36mn
Overall bit rate                 : 2 148 Kbps

Video
ID                               : 1
Format                           : AVC
Format/Info                      : Advanced Video Codec
Format profile                   : High@L3.0
Format settings, CABAC           : Yes
Format settings, ReFrames        : 3 frames
Muxing mode                      : Container profile=Unknown@3.0
Codec ID                         : V_MPEG4/ISO/AVC
Duration                         : 1h 36mn
Bit rate                         : 1 711 Kbps
Width                            : 720 pixels
Height                           : 304 pixels
Display aspect ratio             : 2.35:1
Frame rate                       : 25.000 fps
Color space                      : YUV
Chroma subsampling               : 4:2:0
Bit depth                        : 8 bits
Scan type                        : Progressive
Bits/(Pixel*Frame)               : 0.313
Stream size                      : 1.12 GiB (77%)
Writing library                  : x264 core 79


Audio
ID                               : 2
Format                           : AC-3
Format/Info                      : Audio Coding 3
Mode extension                   : CM (complete main)
Codec ID                         : A_AC3
Duration                         : 1h 36mn
Bit rate mode                    : Constant
Bit rate                         : 448 Kbps
Channel(s)                       : 6 channels
Channel positions                : Front: L C R, Side: L R, LFE
Sampling rate                    : 48.0 KHz
Stream size                      : 310 MiB (21%)
Language                         : English